<svg id="Componente_1722_19" data-name="Componente 1722 – 19" xmlns="http://www.w3.org/2000/svg" xmlns:xlink="http://www.w3.org/1999/xlink" width="294.709" height="65" viewBox="0 0 294.709 65">
  <defs>
    <clipPath id="clip-path">
      <rect id="Rectángulo_152076" data-name="Rectángulo 152076" width="294.709" height="45.429" fill="none"/>
    </clipPath>
  </defs>
  <path id="Trazado_53424" data-name="Trazado 53424" d="M0,0H214.245V89.771H0Z" fill="#fff" opacity="0"/>
  <g id="Grupo_201320" data-name="Grupo 201320" transform="translate(0 8.521)">
    <g id="Grupo_201320-2" data-name="Grupo 201320" clip-path="url(#clip-path)">
      <path id="Trazado_53800" data-name="Trazado 53800" d="M231.223,42.175v-18.3L225.083,43.1A3.219,3.219,0,0,1,222,45.3h-8.921a3.22,3.22,0,0,1-3.086-2.2l-6.139-19.224v18.3A3.18,3.18,0,0,1,200.62,45.3H184.934a3.18,3.18,0,0,1-3.23-3.126V5.57a3.179,3.179,0,0,1,3.23-3.126h23.376a3.221,3.221,0,0,1,3.087,2.2l6.14,19.226,6.139-19.226a3.222,3.222,0,0,1,3.087-2.2H250.14a3.179,3.179,0,0,1,3.23,3.126V42.175a3.179,3.179,0,0,1-3.23,3.126H234.454a3.18,3.18,0,0,1-3.23-3.126" transform="translate(-82.887 -1.158)" fill="#d5202a"/>
      <path id="Trazado_53801" data-name="Trazado 53801" d="M354.735,35.015H343.709V28.392h11.027a3.313,3.313,0,1,1,0,6.623M343.709,12.73h10.265a3.312,3.312,0,1,1,0,6.621H343.709Zm24.234,11.142h-.582a10.954,10.954,0,0,0,11.072-10.893c0-4.224-3.126-10.535-15.684-10.535H326.12a3.18,3.18,0,0,0-3.23,3.126V42.175a3.18,3.18,0,0,0,3.23,3.126H363.7c10.491,0,15.6-4.894,15.5-10.894-.1-5.876-5.18-10.535-11.254-10.535" transform="translate(-147.292 -1.158)" fill="#d5202a"/>
      <path id="Trazado_53802" data-name="Trazado 53802" d="M101.674,46.586c24.379,0,26.375-9.47,26.375-17.654V5.569a3.179,3.179,0,0,0-3.23-3.126H109.133A3.18,3.18,0,0,0,105.9,5.569V30.111c0,2.26-.808,3.878-4.229,3.878s-4.229-1.618-4.229-3.878V5.569a3.18,3.18,0,0,0-3.23-3.126H78.528A3.179,3.179,0,0,0,75.3,5.569V28.932c0,8.184,2,17.654,26.376,17.654" transform="translate(-34.348 -1.158)" fill="#d5202a"/>
      <path id="Trazado_53803" data-name="Trazado 53803" d="M13.687,23.872v4.093a4.162,4.162,0,0,1-4.23,4.092H3.229A3.178,3.178,0,0,0,0,35.182V40.79c0,5.8,5.227,5.8,17.917,5.8,4.728,0,9.209-.666,12.5-2.749s5.413-5.576,5.413-11.231V5.569A3.18,3.18,0,0,0,32.6,2.443H16.918a3.18,3.18,0,0,0-3.231,3.126Z" transform="translate(0 -1.158)" fill="#d5202a"/>
      <path id="Trazado_53804" data-name="Trazado 53804" d="M460.3,31.858c-5.356,0-7.794-3.962-7.794-9.144s2.437-9.144,7.794-9.144,7.793,3.961,7.793,9.144-2.437,9.144-7.793,9.144M460.285,0C432.613,0,429.8,14.326,429.8,22.715s2.812,22.714,30.484,22.714S490.771,31.1,490.771,22.715,487.959,0,460.285,0" transform="translate(-196.061)" fill="#d5202a"/>
    </g>
  </g>
</svg>
